HIERARCHY
ROOT ui
{
	 OFFSET 0 0 0
	 CHANNELS 3 XPosition YPosition Z Position
	 EndSite
	 {
	 OFFSET 0 -1 0
	 }
}
ROOT li
{
	 OFFSET 0 0 0
	 CHANNELS 3 XPosition YPosition Z Position
	 EndSite
	 {
	 OFFSET 0 -1 0
	 }
}
ROOT ul
{
	 OFFSET 0 0 0
	 CHANNELS 3 XPosition YPosition Z Position
	 EndSite
	 {
	 OFFSET 0 -1 0
	 }
}
ROOT ll
{
	 OFFSET 0 0 0
	 CHANNELS 3 XPosition YPosition Z Position
	 EndSite
	 {
	 OFFSET 0 -1 0
	 }
}
ROOT tt
{
	 OFFSET 0 0 0
	 CHANNELS 3 XPosition YPosition Z Position
	 EndSite
	 {
	 OFFSET 0 -1 0
	 }
}
ROOT tb
{
	 OFFSET 0 0 0
	 CHANNELS 3 XPosition YPosition Z Position
	 EndSite
	 {
	 OFFSET 0 -1 0
	 }
}
ROOT td
{
	 OFFSET 0 0 0
	 CHANNELS 3 XPosition YPosition Z Position
	 EndSite
	 {
	 OFFSET 0 -1 0
	 }
}
ROOT v
{
	 OFFSET 0 0 0
	 CHANNELS 3 XPosition YPosition Z Position
	 EndSite
	 {
	 OFFSET 0 -1 0
	 }
}
ROOT bn
{
	 OFFSET 0 0 0
	 CHANNELS 3 XPosition YPosition Z Position
	 EndSite
	 {
	 OFFSET 0 -1 0
	 }
}
MOTION
Frames: 16
Frame Time: 0.002
-0.029927066802978516	-4.307349920272827E-4	0		0.5204632568359375	-2.445101806640625	0		-1.0189249877929687	-0.09446829223632812	0		-0.6200712280273437	-2.59161474609375	0		2.267784912109375	-0.04058933639526367	0		3.579814697265625	0.15419779968261718	0		4.69851953125	0.4169367370605469	0		5.97956298828125	0.5140311889648438	0		-0.33241546630859375	5.80691259765625	0		
-0.01754352378845215	0.001972511053085327	0		0.53101708984375	-2.433660888671875	0		-1.0054580688476562	-0.08410778045654296	0		-0.5844736938476562	-2.57646240234375	0		2.290149169921875	-0.04021144104003906	0		3.553335693359375	0.17110993957519532	0		4.6908701171875	0.4176953125	0		5.98106103515625	0.5297404174804687	0		-0.3332308654785156	5.8084365234375	0		
0.05473148345947266	-0.007223825931549072	0		0.5454562377929687	-2.4332607421875	0		-1.01599609375	-0.07450248718261719	0		-0.5850596923828125	-2.578944580078125	0		2.222582763671875	-0.0329389419555664	0		3.5125712890625	0.15914979553222655	0		4.67829736328125	0.42548690795898436	0		5.98224365234375	0.5134306030273438	0		-0.367079833984375	5.80429248046875	0		
-0.02280715560913086	0.0020856220722198487	0		0.49419732666015626	-2.40219970703125	0		-1.0146268920898438	-0.0750089111328125	0		-0.5925169067382813	-2.5683505859375	0		2.2496298828125	-0.06562176513671875	0		3.495965576171875	0.16193739318847655	0		4.63666650390625	0.4265538024902344	0		5.9706787109375	0.5212303466796875	0		-0.39604742431640627	5.785103515625	0		
0.04756610870361328	9.253770112991333E-4	0		0.49562445068359373	-2.402661376953125	0		-1.0072987670898437	-0.08056159973144532	0		-0.6240348510742187	-2.563506103515625	0		2.215909912109375	-0.07569697570800782	0		3.502268798828125	0.1544893798828125	0		4.61603515625	0.4263985595703125	0		5.97204443359375	0.5208837280273437	0		-0.359743896484375	5.78927392578125	0		
-0.020047145843505858	0.001154873013496399	0		0.4491693420410156	-2.390634033203125	0		-1.0588118896484375	-0.07050929260253906	0		-0.6086495971679687	-2.56811376953125	0		2.196116455078125	-0.09390850067138672	0		3.470810546875	0.17041688537597657	0		4.6055615234375	0.44113552856445315	0		5.982578125	0.5364340209960937	0		-0.36430667114257814	5.803869140625	0		
0.05336275100708008	0.0029989409446716307	0		0.508569091796875	-2.392644775390625	0		-1.045318603515625	-0.06008169937133789	0		-0.6500836791992187	-2.553134033203125	0		2.19345166015625	-0.09928167724609376	0		3.46805322265625	0.1560595703125	0		4.6028701171875	0.43379156494140625	0		5.98787548828125	0.5280272827148438	0		-0.32992529296875	5.81009619140625	0		
-0.0172896785736084	2.9748499393463136E-4	0		0.48299240112304687	-2.3897900390625	0		-1.0439443359375	-0.0605069580078125	0		-0.6127218017578125	-2.556913818359375	0		2.18558837890625	-0.12359152221679688	0		3.46449560546875	0.16271823120117188	0		4.5602529296875	0.4348466491699219	0		5.97633544921875	0.5367846069335938	0		-0.32859597778320315	5.8096767578125	0		
0.06104613876342774	-0.001858083963394165	0		0.511318359375	-2.393447509765625	0		-1.0385650634765624	-0.05794102096557617	0		-0.6483524780273437	-2.555939208984375	0		2.118921875	-0.1253001708984375	0		3.427866455078125	0.16471548461914062	0		4.5566806640625	0.44251934814453125	0		5.981603515625	0.5283732299804688	0		-0.36230270385742186	5.80563232421875	0		
-0.01959431838989258	0.003595099925994873	0		0.4876714172363281	-2.38856103515625	0		-1.024150634765625	-0.04743000411987305	0		-0.6120820922851562	-2.559646728515625	0		2.092000244140625	-0.14838508605957032	0		3.39424365234375	0.1716966094970703	0		4.54397802734375	0.44129055786132815	0		5.983900390625	0.5269932250976562	0		-0.3891951599121094	5.78455126953125	0		
-0.013395627021789551	-7.816410064697266E-4	0		0.49294464111328123	-2.383931640625	0		-1.006982666015625	-0.054909626007080076	0		-0.6318683471679688	-2.560761474609375	0		2.093238037109375	-0.14872555541992188	0		3.43534228515625	0.15695114135742189	0		4.54521923828125	0.44093472290039065	0		5.99722119140625	0.5345087280273437	0		-0.35774285888671875	5.80192724609375	0		
-0.0051790962219238285	0.005857968807220459	0		0.526104248046875	-2.380546142578125	0		-0.9886876220703125	-0.040359130859375	0		-0.6036805419921875	-2.554314208984375	0		2.0943837890625	-0.14903880310058593	0		3.385901611328125	0.19812872314453125	0		4.5246708984375	0.47081231689453124	0		5.9944638671875	0.5431925048828125	0		-0.3244547119140625	5.80932177734375	0		
-0.016174638748168945	0.0027268049716949465	0		0.5052224731445313	-2.36858642578125	0		-0.9936044311523438	-0.03553556442260742	0		-0.642693603515625	-2.5551572265625	0		2.081236572265625	-0.16718113708496093	0		3.383749267578125	0.17885723876953125	0		4.53350244140625	0.44941403198242186	0		5.99042626953125	0.53490087890625	0		-0.32432290649414064	5.81008544921875	0		
-0.015273754119873046	0.002517716884613037	0		0.5129774169921875	-2.378875	0		-0.9786849975585937	-0.033865657806396485	0		-0.60991357421875	-2.56267333984375	0		2.04009619140625	-0.17101119995117187	0		3.3687841796875	0.19174162292480468	0		4.50648291015625	0.45639633178710937	0		5.99133740234375	0.5345758666992187	0		-0.3515082092285156	5.7901630859375	0		
-0.009562074661254883	-0.0016983499526977538	0		0.488715087890625	-2.374803466796875	0		-1.028911376953125	-0.03149916648864746	0		-0.6003319702148437	-2.573915283203125	0		2.029714599609375	-0.1841146240234375	0		3.380479736328125	0.18538670349121095	0		4.50724560546875	0.4561246643066406	0		5.99210205078125	0.53426953125	0		-0.3846796569824219	5.78434521484375	0		
-0.013931513786315918	0.0022289249897003175	0		0.5202694091796874	-2.3722509765625	0		-1.0133026733398438	-0.02974481201171875	0		-0.6228405151367188	-2.576791015625	0		2.0021907958984375	-0.1950111541748047	0		3.3372880859375	0.20661245727539063	0		4.4958486328125	0.45599981689453123	0		5.99778662109375	0.5419334106445313	0		-0.3216746826171875	5.809609375	0		
